<?xml version="1.0" encoding="iso-8859-1"?>
<!-- Uploaded to: SVG Repo, www.svgrepo.com, Generator: SVG Repo Mixer Tools -->
<!DOCTYPE svg PUBLIC "-//W3C//DTD SVG 1.1//EN" "http://www.w3.org/Graphics/SVG/1.1/DTD/svg11.dtd">
<svg fill="#000000" version="1.1" id="Capa_1" xmlns="http://www.w3.org/2000/svg" xmlns:xlink="http://www.w3.org/1999/xlink" 
	 width="800px" height="800px" viewBox="0 0 495.889 495.889"
	 xml:space="preserve">
<g>
	<g>
		<path d="M177.693,111.485c18.029,0,34.973-10.179,43.466-26.081c8.611-16.121,7.418-36.279-3.021-51.276
			c-10.378-14.909-28.534-23.002-46.561-20.77c-17.765,2.199-33.296,14.325-39.793,30.998c-6.634,17.024-3.086,36.839,9.018,50.512
			C150.098,105.367,163.669,111.485,177.693,111.485z"/>
		<path d="M288.948,119.703c-1.736-7.222-4.043-14.274-6.724-21.197c-2.09-6.029-7.729-9.802-13.767-9.824l-4.939-12.942
			c7.709-6.762,6.779-19.438-1.852-24.969c-7.87-5.044-18.695-1.935-22.658,6.542c-2.213,4.735-1.902,10.377,0.832,14.835
			c2.847,4.641,8.075,7.52,13.518,7.47l4.989,13.073c-2.776,2.637-4.444,6.342-4.562,10.172c-0.106,3.451,1.252,6.907,1.955,10.262
			c0.848,4.046,1.532,8.126,1.978,12.237c0.5,4.642,0.803,9.44,0.078,14.075c-9.716-1.612-19.208-5.353-28.179-9.311
			c-4.248-1.875-8.43-3.897-12.542-6.054c-2.768-1.452-5.445-3.084-8.246-4.469c-17.363-10.022-39.286-7.279-55.302,4.323
			c-9.281,6.723-17.278,15.345-24.295,24.366c-7.751,9.964-14.36,20.87-19.529,32.391c-2.597,5.79-4.958,11.692-6.88,17.743
			c-1.943,6.12-3.517,12.294-4.928,18.556c-2.746,12.185-3.761,24.836-3.958,37.299c-0.067,4.273,0.067,8.539,0.181,12.811
			c0.232,7.703,6.664,14.098,14.376,14.232c7.648,0.133,14.258-5.918,14.823-13.541c0.68-9.168,1.679-18.189,3.457-27.217
			c2.353-11.946,6.364-23.534,11.618-34.503c1.12,18.993,1.969,38.002,2.668,57.015c0.229,6.215,0.44,12.431,0.636,18.646
			c0.1,3.177,0.151,6.347,0.608,9.497c0.42,2.895,1.301,5.625,1.937,8.463c2.536,11.314,3.942,22.92,5.196,34.434
			c2.797,25.679,3.359,51.604,2.602,77.406c-0.361,12.316-1.167,24.6-2.232,36.875c-0.8,9.219-1.892,18.402-2.966,27.594
			c-1.048,9.365,5.645,18.145,14.932,19.666c9.318,1.529,18.458-4.729,20.423-13.959c2.019-9.482,4.052-18.953,5.813-28.488
			c2.273-12.309,4.273-24.67,5.82-37.092c3.11-24.961,5.173-50.102,5.234-75.271c1.889,12.806,3.099,25.837,3.582,38.772
			c0.476,12.713,0.687,25.436-0.018,38.145c-0.302,5.438-0.495,10.889-1.072,16.305c-0.568,5.332-1.057,10.678-1.697,16.002
			c-0.584,4.865-1.548,9.709-2.323,14.547c-0.387,2.414-0.772,4.828-1.161,7.242c-1.475,9.377,4.932,18.488,14.23,20.332
			c9.254,1.832,18.583-4.115,20.85-13.266c2.259-9.123,4.709-18.215,6.468-27.447c2.362-12.402,4.6-24.832,5.976-37.391
			c0.584-6.381,1.168-12.762,1.73-19.145c0.288-3.27,0.337-6.57,0.497-9.85c0.16-3.29,0.329-6.581,0.431-9.873
			c0.398-12.888,0.269-25.912-0.583-38.779c-1.184-17.888-2.721-35.865-6.06-53.502c-0.48-22.088-1.512-44.188-2.645-66.25
			c-0.699-13.608-1.5-27.212-2.519-40.8c-0.049-0.656-0.099-1.312-0.149-1.967c5.97,1.314,12.036,2.373,18.141,2.799
			c5.667,0.396,11.432,0.313,16.932-1.245c8.038-2.277,14.675-8.498,18.244-15.945C293.821,147.211,291.999,132.535,288.948,119.703
			C287.371,113.141,289.73,122.992,288.948,119.703z M245.613,66.843c-1.576-4.129,0.561-8.904,4.69-10.48
			c4.128-1.576,8.903,0.562,10.479,4.69s-0.562,8.904-4.689,10.48C251.965,73.109,247.19,70.972,245.613,66.843
			C244.017,62.661,247.21,71.025,245.613,66.843z"/>
		<path d="M341.117,0c-8.976,0-17.579,4.332-22.938,11.531c-5.433,7.297-7.057,16.995-4.313,25.669
			c2.666,8.429,9.291,15.303,17.613,18.284c8.569,3.069,18.336,1.802,25.831-3.362c7.364-5.074,12.015-13.485,12.359-22.425
			c0.348-8.998-3.657-17.783-10.681-23.419C353.944,2.228,347.586,0,341.117,0z M326.498,38.1c-4.482,0-7.772-3.823-8.946-7.849
			c-1.313-4.5-0.435-9.9,2.888-13.343c2.965-3.072,7.552-3.629,10.998-1c3.767,2.875,5.13,8.114,4.393,12.641
			C335.071,33.199,331.651,38.1,326.498,38.1z"/>
		<path d="M287.977,26.613c-9.206,1.7-15.714,10.524-14.589,19.824c1.125,9.296,9.516,16.357,18.877,15.812
			c9.354-0.545,16.928-8.484,16.962-17.867c0.035-9.375-7.434-17.421-16.798-18.034C290.941,26.251,289.442,26.342,287.977,26.613
			C278.21,28.417,297.741,24.809,287.977,26.613z M292.167,40.864c-3.338,0.616-7.792-0.743-8.491-4.526
			c-0.698-3.783,2.975-6.645,6.313-7.261c3.338-0.617,7.792,0.743,8.491,4.526C299.18,37.385,295.506,40.247,292.167,40.864z"/>
		<path d="M401.608,47.538c-0.832-4.506-4.167-8.268-8.539-9.64c-4.432-1.391-9.41-0.134-12.651,3.191
			c-3.225,3.308-4.362,8.235-2.921,12.624c1.419,4.32,5.212,7.593,9.69,8.379C395.617,63.573,403.161,55.943,401.608,47.538
			C400.357,40.764,402.86,54.312,401.608,47.538z M389.985,47.424c-2.316,0.428-5.405-0.516-5.89-3.14
			c-0.485-2.624,2.062-4.609,4.378-5.037c2.314-0.428,5.404,0.515,5.89,3.14C394.85,45.011,392.301,46.996,389.985,47.424
			C387.149,47.948,392.82,46.9,389.985,47.424z"/>
	</g>
</g>
</svg>